<?xml version="1.0" encoding="utf-8"?>
<!-- Generator: Adobe Illustrator 16.0.4, SVG Export Plug-In . SVG Version: 6.00 Build 0)  -->
<!DOCTYPE svg PUBLIC "-//W3C//DTD SVG 1.1//EN" "http://www.w3.org/Graphics/SVG/1.1/DTD/svg11.dtd">
<svg version="1.1" id="Layer_1" xmlns="http://www.w3.org/2000/svg" xmlns:xlink="http://www.w3.org/1999/xlink" x="0px" y="0px"
	 width="24px" height="24px" viewBox="0 0 24 24" enable-background="new 0 0 24 24" xml:space="preserve">
<symbol  id="ic_x5F_arrow_x5F_dropdown_x5F_darkreg" viewBox="0 -24 24 24">
	<g>
		
			<linearGradient id="SVGID_1_" gradientUnits="userSpaceOnUse" x1="12" y1="110" x2="12" y2="105" gradientTransform="matrix(1 0 0 1 0 -120)">
			<stop  offset="0" style="stop-color:#000000;stop-opacity:0.67"/>
			<stop  offset="1" style="stop-color:#000000;stop-opacity:0.75"/>
		</linearGradient>
		<polygon opacity="0.5" fill="url(#SVGID_1_)" points="7,-10 12,-15 17,-10 		"/>
		<g opacity="0.05">
			<path d="M15.793-10.5L12-14.293L8.207-10.5H15.793 M17-10H7l5-5L17-10L17-10z"/>
		</g>
	</g>
	<polygon fill="#FFFFFF" fill-opacity="0.3" points="12,-15 7,-10 7,-10.5 12,-15.5 17,-10.5 17,-10 	"/>
	<polygon fill="none" points="24,-24 0,-24 0,0 24,0 	"/>
	<g>
		<polygon opacity="0.3" points="17,-10 7,-10 7.5,-10.5 16.5,-10.5 		"/>
	</g>
</symbol>
<use xlink:href="#ic_x5F_arrow_x5F_dropdown_x5F_darkreg"  width="24" height="24" id="XMLID_255_" y="-24" transform="matrix(1 0 0 -1 0 4.882812e-04)" overflow="visible"/>
</svg>
